<?xml version="1.0" encoding="UTF-8"?>
<svg width="156px" height="28px" viewBox="0 0 156 28" version="1.1" xmlns="http://www.w3.org/2000/svg" xmlns:xlink="http://www.w3.org/1999/xlink">
    <title>5A6442E5-407E-4515-9B26-14F25AC84A9D@2x</title>
    <g id="Desktop" stroke="none" stroke-width="1" fill="none" fill-rule="evenodd">
        <g id="FashFans_Homepage" transform="translate(-108.000000, -46.000000)">
            <g id="Logo" transform="translate(108.000000, 46.000000)">
                <g id="FashFans" transform="translate(55.042667, 0.000000)" fill="#020101" font-family="Quicksand-Regular, Quicksand" font-size="22" font-weight="normal">
                    <text>
                        <tspan x="0.449333333" y="22">FashFans</tspan>
                    </text>
                </g>
                <path d="M26.2800958,17 C25.2019494,16.2529696 24.2272572,15.5868896 23.503933,15.1091069 C23.003762,14.7809063 22.502736,14.4615046 22,14.1491421 L27.4847811,11 C29.005814,11.8974923 30.4840971,12.8037835 32,13.7153542 L26.2800958,17 Z M46.9256857,10.4202484 C45.3356374,8.53213568 42.567028,7.78462875 39.5849111,9.35857191 C38.5049516,9.83137391 37.5251464,10.3931648 36.4909939,10.9990633 L35.9312162,11.3109114 L35.4785804,11.5337706 C35.4886735,11.540735 35.4925554,11.5430564 35.5010957,11.549247 L32.7860572,13.0597372 C31.9374621,12.5428276 31.1765992,12.0847281 30.5780019,11.7318677 C29.952231,11.3666262 29.3249072,11.012992 28.6968071,10.6655483 L30.4359224,9.69827744 C30.4662017,9.67661057 30.4902698,9.65107462 30.524431,9.63250302 L33.9964504,7.71808052 C35.0515655,7.13617037 34.937436,5.67984735 33.7992472,5.21246206 C33.2262708,4.97722179 32.6649403,4.95400729 32.1137028,5.06156781 L25.1719931,8.85249579 C22.9872295,7.82254577 20.7752922,6.96747833 18.513666,6.41419939 C18.0649121,6.30431742 17.9608757,6.74694057 18.3933254,6.92259696 C20.474829,7.7637357 22.2977945,8.62421987 23.98955,9.49863273 L18.9624198,12.2433605 C17.1549821,11.3674 15.3118305,10.6686436 13.4104495,10.2600684 C13.0175958,10.1757223 12.8964788,10.6446553 13.2706992,10.7994186 C14.9251879,11.4757344 16.3809205,12.1853243 17.7341696,12.9142596 L12.3879429,15.8330962 C12.3498997,15.8485725 12.3110802,15.8586321 12.2730371,15.8772037 L9.50675679,17.2190019 C8.6907701,17.5695408 7.72494,17.7823404 6.87479212,18.0075211 C5.80414927,18.2922856 4.87869148,18.0601406 4.40354034,17.2793596 C3.94236423,16.5186978 4.0627048,15.6558922 4.72030777,14.8155272 C4.83055526,14.677014 4.9695292,14.5532034 5.09375172,14.4224284 C5.12170179,14.5593939 5.08132947,14.6599901 5.04872106,14.7605862 C4.82434413,15.4485093 5.14033517,16.1186345 5.81890069,16.3917918 C6.48659674,16.6618539 7.37711694,16.4962571 7.95630444,15.9948239 C8.58518096,15.4523784 8.77927865,14.6801093 8.43921949,14.0881395 C8.10925342,13.5139676 7.31267651,13.2268816 6.52852184,13.4690862 C5.28474385,13.8536731 3.96798513,14.9130281 4.00059354,16.3639344 C4.02000331,17.2615618 4.52776286,17.9324609 5.07356556,18.5793716 C6.66283744,20.4674844 9.43222327,21.2157651 12.4143402,19.6410481 C13.5012872,19.1651509 14.4857507,18.6010385 15.5268907,17.9889495 L16.0556128,17.695673 L16.5206709,17.4666232 C16.5098014,17.4596589 16.5059195,17.4565636 16.4966028,17.4495993 L21.1114694,14.8836231 C22.4305573,15.703095 23.7100493,16.5357217 25.0400067,17.3675747 L21.5687636,19.2982473 C21.5369316,19.320688 21.5113107,19.3477716 21.4755967,19.3678908 L18.0020244,21.2823133 C16.9476858,21.8642235 17.0610388,23.3205465 18.1992277,23.7879318 C18.7729805,24.0223983 19.334311,24.0463866 19.8855484,23.9380522 L28.3365618,19.3230095 C29.4374839,19.9343247 30.6090576,20.5394493 31.9040773,21.1329667 C32.2728629,21.3016588 32.5399414,20.895405 32.2107517,20.6671291 C31.3838955,20.0929571 30.4103015,19.4236056 29.4079811,18.7380041 L34.9708208,15.6999997 C36.5499996,16.5511981 38.2378731,17.4023964 40.147018,18.2489519 C40.5748093,18.4393108 40.8473225,18.0678788 40.4591271,17.8225789 C39.1920574,17.0232263 37.6346175,16.0497649 36.0864943,15.0902322 L39.6074264,13.1680715 C39.646246,13.1525952 39.6866183,13.1425355 39.7254378,13.1224163 L42.4932709,11.781392 C43.3084812,11.4316268 44.2743113,11.2180534 45.1236828,10.9928728 C46.1943256,10.7073344 47.1205598,10.9387056 47.5964873,11.7218081 C48.0576634,12.4809223 47.9365465,13.3445017 47.2781671,14.1840928 C47.1694724,14.322606 47.0297221,14.4456429 46.9047232,14.5764179 C46.8775495,14.441 46.9179218,14.3404038 46.9513066,14.2398076 C47.1749071,13.5518846 46.8581397,12.8825331 46.1803506,12.6078282 C45.5118781,12.33854 44.6221343,12.5041368 44.0421704,13.00557 C43.4148467,13.5472417 43.2191962,14.3195107 43.5592554,14.9122543 C43.8907742,15.4864263 44.6865748,15.7727385 45.4715058,15.5305339 C46.7145074,15.1467208 48.0312661,14.0873657 47.9994341,12.6364594 C47.9800244,11.7380582 47.470712,11.0671592 46.9256857,10.4202484 L46.9256857,10.4202484 Z" id="Fill-1" fill="#020203"></path>
            </g>
        </g>
    </g>
</svg>